# xmcd
#
# Track frame offsets: 
#        150
#        17922
#        32604
#        53481
#        72271
#        93723
#        111277
#        128731
#        155222
#        186262
#        203658
#        220001
#        241435
#        255169
#
# Disc length: 3479 seconds
#
# Revision: 1
# Processed by: cddbd v1.5.2PL0 Copyright (c) Steve Scherf et al.
# Submitted via: ExactAudioCopy v0.99pb3
#
DISCID=c00d950e
DTITLE=Sista Monica Parker - Love, Soul and Spirit Vol 1
DYEAR=2005
DGENRE=Blues
TTITLE0=The Look Of Love
TTITLE1=What A Difference A Day Makes
TTITLE2=Georgia On My Mind
TTITLE3=Make Someone Smile Today
TTITLE4=All Things Are Possible
TTITLE5=Why Did You Leave My Child?
TTITLE6=People Get Ready
TTITLE7=Everything Must Change
TTITLE8=Ain't No Sunshine When She's Gone
TTITLE9=Take My Breath Away
TTITLE10=You Gotta Move
TTITLE11=Until It's Time For You To Go
TTITLE12=That's Life
TTITLE13=Nobody Knows The Trouble I've Seen
EXTD=
EXTT0=
EXTT1=
EXTT2=
EXTT3=
EXTT4=
EXTT5=
EXTT6=
EXTT7=
EXTT8=
EXTT9=
EXTT10=
EXTT11=
EXTT12=
EXTT13=
PLAYORDER=
